<svg t="1770293799929" class="icon" viewBox="0 0 1024 1024" version="1.1" xmlns="http://www.w3.org/2000/svg" p-id="5568" width="32px" height="32px"><path d="M512 0a512 512 0 1 0 0 1024A512 512 0 0 0 512 0z m0 972.8A460.8 460.8 0 1 1 512 51.2a460.8 460.8 0 0 1 0 921.6z m-0.32-438.528c-5.888 0-11.904 0.192-17.792 0.448C412.672 531.2 351.424 463.424 351.424 376.96c0-85.056 71.168-154.24 158.72-154.24 87.488 0 158.656 69.184 158.656 154.24a151.04 151.04 0 0 1-44.672 107.2 21.76 21.76 0 0 0 0.256 30.976 22.08 22.08 0 0 0 31.232-0.192 194.624 194.624 0 0 0 57.344-137.984c0-109.184-90.944-198.016-202.816-198.016-111.808 0-202.816 88.832-202.816 198.016 0 74.496 36.672 140.288 96.768 175.616a309.952 309.952 0 0 0-138.56 97.92 275.072 275.072 0 0 0-61.056 172.608 22.016 22.016 0 0 0 44.16 0c0-128.832 107.968-236.16 245.888-244.544l6.08 0.064a25.216 25.216 0 0 0 4.928-0.512l6.144-0.064c145.024 0 263.04 109.952 263.04 245.056a22.016 22.016 0 0 0 44.16 0c0-159.296-137.792-288.832-307.2-288.832z" fill="var(--theme-color-g400)" p-id="5569"></path></svg>
