<svg t="1769258294274" class="icon" viewBox="0 0 1024 1024" version="1.1" xmlns="http://www.w3.org/2000/svg" p-id="3455" width="24px" height="24px"><path d="M698 424.2c0-12.5-12.6-25.1-25.1-25.1h-392c-12.6 0-25.1 12.5-25.1 25.1s12.6 25.1 25.1 25.1h392c12.5 0 25.1-12.6 25.1-25.1zM409 539.6H285.8c-15.1 0-27.6 10-27.6 25.1 0 12.5 12.6 25.1 27.6 25.1H409c15.1 0 27.6-12.5 27.6-25.1 0-15.1-12.6-25.1-27.6-25.1z m0 140.5H285.8c-15.1 0-27.6 10-27.6 25.1 0 12.5 12.6 25.1 27.6 25.1H409c15.1 0 27.6-12.5 27.6-25.1 0-15-12.6-25.1-27.6-25.1z m263.8-421.5h-392c-12.6 0-25.1 12.5-25.1 25.1 0 12.5 12.6 25.1 25.1 25.1h392c12.6 0 25.1-12.5 25.1-25.1 0.1-12.6-12.5-25.1-25.1-25.1zM486.9 870.8H175.3V153.2h623.2v331.2c0 15.1 10.1 25.1 25.1 25.1 15.1 0 25.1-10 25.1-25.1V128.1c0-12.5-12.6-25.1-25.1-25.1H150.1c-12.6 0-25.1 12.5-25.1 25.1v767.8c0 12.5 12.6 25.1 25.1 25.1h336.7c15.1 0 25.1-10 25.1-25.1 0.1-15-10-25.1-25-25.1zM698 519.5c-110.6 0-201 90.3-201 200.7S587.4 921 698 921s201-90.3 201-200.7-90.5-200.8-201-200.8z m0 351.3c-82.9 0-150.8-67.7-150.8-150.6S615 569.7 698 569.7s150.8 67.7 150.8 150.6S780.9 870.8 698 870.8z m75.4-175.6h-50.3V645c0-12.5-12.6-25.1-25.1-25.1s-25.1 12.5-25.1 25.1v75.3c0 12.5 12.6 25.1 25.1 25.1h75.4c12.6 0 25.1-12.5 25.1-25.1 0-12.6-12.6-25.1-25.1-25.1z" p-id="3456" fill="var(--theme-color-g400)"></path></svg>
