<svg t="1769348475125" class="icon" viewBox="0 0 1024 1024" version="1.1" xmlns="http://www.w3.org/2000/svg" p-id="5400" width="200" height="200"><path d="M769.23959463 255.73664672c-141.31093481-141.31093481-371.21577175-141.31093481-512.52670658 0s-141.31093481 371.21577175 0 512.52670656c70.77749758 70.53343723 163.52042543 105.92218603 256.26335329 105.92218602s185.72991605-35.38874877 256.26335329-105.92218602c141.31093481-141.31093481 141.31093481-371.21577175 0-512.52670656z m-43.19867958 469.32802702c-58.8185411 58.8185411-135.94160741 88.10578145-213.06467371 88.10578144-77.12306631 0-154.49019299-29.28724036-213.06467373-88.10578144-117.63708217-117.63708217-117.63708217-308.73632562 0-426.37340779 58.8185411-58.8185411 135.94160741-88.10578145 213.06467373-88.10578147s154.49019299 29.28724036 213.06467371 88.10578147c117.63708217 117.63708217 117.63708217 308.73632562 0 426.37340779z" fill="var(--theme-color-g400)" p-id="5401"></path><path d="M456.84236398 575.69974783L370.44500486 471.73004448l-46.8595846 38.8055935 128.37573696 154.73425334 248.20936219-240.15537111-42.46649854-43.6868002z" fill="var(--theme-color-g400)" p-id="5402"></path></svg>
